{
	"asset":{
		"generator":"Khronos glTF Blender I/O v3.6.27",
		"version":"2.0"
	},
	"extensionsUsed":[
		"KHR_materials_emissive_strength"
	],
	"scene":0,
	"scenes":[
		{
			"name":"Scene",
			"nodes":[
				1
			]
		}
	],
	"nodes":[
		{
			"name":"Empty",
			"rotation":[
				0.26400741934776306,
				-0.3419265151023865,
				0.8962374329566956,
				0.10072234272956848
			],
			"scale":[
				1.418648600578308,
				1.4186487197875977,
				1.418648600578308
			]
		},
		{
			"children":[
				0
			],
			"mesh":0,
			"name":"Icosphere"
		}
	],
	"materials":[
		{
			"doubleSided":true,
			"emissiveFactor":[
				0.030712630599737167,
				0.26225021481513977,
				1
			],
			"extensions":{
				"KHR_materials_emissive_strength":{
					"emissiveStrength":22
				}
			},
			"name":"Ice",
			"pbrMetallicRoughness":{
				"metallicFactor":0
			}
		}
	],
	"meshes":[
		{
			"name":"Icosphere",
			"primitives":[
				{
					"attributes":{
						"POSITION":0,
						"NORMAL":1,
						"TEXCOORD_0":2
					},
					"indices":3,
					"material":0
				}
			]
		}
	],
	"accessors":[
		{
			"bufferView":0,
			"componentType":5126,
			"count":10593,
			"max":[
				1,
				1,
				0.9999999403953552
			],
			"min":[
				-0.9999999403953552,
				-1,
				-0.9999999403953552
			],
			"type":"VEC3"
		},
		{
			"bufferView":1,
			"componentType":5126,
			"count":10593,
			"type":"VEC3"
		},
		{
			"bufferView":2,
			"componentType":5126,
			"count":10593,
			"type":"VEC2"
		},
		{
			"bufferView":3,
			"componentType":5123,
			"count":61440,
			"type":"SCALAR"
		}
	],
	"bufferViews":[
		{
			"buffer":0,
			"byteLength":127116,
			"byteOffset":0,
			"target":34962
		},
		{
			"buffer":0,
			"byteLength":127116,
			"byteOffset":127116,
			"target":34962
		},
		{
			"buffer":0,
			"byteLength":84744,
			"byteOffset":254232,
			"target":34962
		},
		{
			"buffer":0,
			"byteLength":122880,
			"byteOffset":338976,
			"target":34963
		}
	],
	"buffers":[
		{
			"byteLength":461856,
			"uri":"data:application/octet-stream;base64,"
		}
	]
}
